<?xml version="1.0" encoding="UTF-8"?>
<svg version="1.1" xmlns="http://www.w3.org/2000/svg" width="500" height="500">
<path d="M0 0 C1.13115234 0.4645459 1.13115234 0.4645459 2.28515625 0.93847656 C10.59088351 4.36257488 18.42554953 8.13665582 26 13 C28.16472545 14.33648267 30.33151516 15.66962572 32.5 17 C33.6034375 17.68320312 34.706875 18.36640625 35.84375 19.0703125 C38.53946077 20.7184327 41.26094877 22.30093484 44 23.875 C54.53616384 30.1588232 64.38694839 38.33030982 73 47 C74.69745439 48.65415623 76.39675308 50.30642147 78.09765625 51.95703125 C92.49585039 66.01276655 104.90371093 80.08611213 114.99609375 97.58203125 C116.69367473 100.47751537 118.48710292 103.22840642 120.375 106 C136.4220161 131.23791677 145.56669823 160.82125431 151 190 C151.17145035 190.90381912 151.3429007 191.80763824 151.51954651 192.73884583 C152.02415816 196.16397732 152.15547375 199.43234796 152.19287109 202.89379883 C152.20104858 203.55677475 152.20922607 204.21975067 152.21765137 204.90281677 C152.24235487 207.08754643 152.25900462 209.27221056 152.2734375 211.45703125 C152.27876118 212.21466955 152.28408485 212.97230785 152.28956985 213.75290489 C152.31626779 217.78228106 152.33563234 221.81162699 152.35009766 225.84106445 C152.36328457 229.12163125 152.3908513 232.40155328 152.43212891 235.68188477 C152.76147308 262.47421458 149.93636662 286.55943462 141 312 C140.73461426 312.77504883 140.46922852 313.55009766 140.19580078 314.34863281 C133.61676124 333.49981187 124.96719091 350.99165934 114 368 C113.56510254 368.6811084 113.13020508 369.3622168 112.68212891 370.06396484 C105.78687749 380.82913362 98.43175398 391.01698012 89.1171875 399.85546875 C87.22539354 401.77169548 85.4841626 403.73991977 83.73046875 405.78125 C69.69936377 421.92670763 52.99318656 434.58537194 34.60546875 445.2890625 C31.18427778 447.28094072 27.89059555 449.38483301 24.625 451.625 C2.83251831 465.62957287 -23.9516976 473.45374319 -49 479 C-50.12122002 479.25933571 -50.12122002 479.25933571 -51.26509094 479.52391052 C-59.61666664 481.27366331 -67.92428865 481.34577891 -76.41796875 481.37109375 C-78.00385098 481.38009512 -79.58973252 481.38921736 -81.1756134 481.39845276 C-84.49299151 481.41486065 -87.81026983 481.42262613 -91.12768555 481.42553711 C-94.47794639 481.42981689 -97.8274281 481.45048692 -101.17749023 481.48706055 C-120.67315763 481.69607555 -139.0794405 481.39013938 -158 476 C-158.87445267 475.75142242 -159.74890533 475.50284485 -160.64985657 475.24673462 C-166.15882459 473.65411305 -171.5866749 471.8912783 -177 470 C-178.18070068 469.59394531 -178.18070068 469.59394531 -179.38525391 469.1796875 C-198.17362704 462.67762669 -214.77013191 454.26567942 -231.52099609 443.56347656 C-233.78187655 442.13756772 -236.06190656 440.75768859 -238.36328125 439.3984375 C-258.65817987 427.34560382 -275.7869838 409.8992391 -291 392 C-292.20849609 390.57880859 -292.20849609 390.57880859 -293.44140625 389.12890625 C-299.60550527 381.67068699 -304.94653018 374.11383578 -309.5390625 365.6015625 C-310.97198533 363.04988709 -312.50183568 360.57218821 -314.05004883 358.08935547 C-347.51291588 303.97704802 -356.10555116 236.10242764 -342.17773438 174.43969727 C-336.30355654 150.17908886 -327.12606416 126.2732764 -314 105 C-313.35417969 103.91847656 -312.70835937 102.83695312 -312.04296875 101.72265625 C-301.66826748 84.51333916 -289.85853364 69.49329059 -275.64501953 55.3293457 C-273.75791607 53.44540282 -271.88456599 51.54849359 -270.01171875 49.65039062 C-259.30274989 38.88559469 -247.99694161 29.9174693 -235 22 C-233.95972656 21.35289063 -232.91945313 20.70578125 -231.84765625 20.0390625 C-228.57571377 18.00820165 -225.28948354 16.00229433 -222 14 C-221.05640625 13.4121875 -220.1128125 12.824375 -219.140625 12.21875 C-154.22866969 -27.23050461 -68.9660416 -28.81260753 0 0 Z " fill="#F9EAD7" transform="translate(348,19)"/>
<path d="M0 0 C2.24439356 0.00315599 4.48745777 -0.0203886 6.73168945 -0.0456543 C28.15235972 -0.14076869 47.92292948 4.50452544 64.11645508 19.30004883 C81.42083245 37.14099604 83.07976672 61.37541869 83.10229492 84.94873047 C83.10737564 86.13769928 83.11245636 87.32666809 83.11769104 88.55166626 C83.12831423 91.1105535 83.13696528 93.66944955 83.14381027 96.22834969 C83.15572581 100.29692979 83.17493909 104.36541008 83.19692993 108.4339447 C83.25831135 119.9943377 83.31268906 131.55472345 83.34594727 143.11523438 C83.36445572 149.52140069 83.39358515 155.92743212 83.43395197 162.3334989 C83.45474484 165.70538684 83.46873499 169.07695769 83.47275925 172.44893074 C83.49295818 187.75371687 84.23991552 202.23521519 86.94458008 217.31567383 C76.38458008 217.31567383 65.82458008 217.31567383 54.94458008 217.31567383 C53.46286323 214.35224013 53.49064983 211.22996974 53.22583008 207.97192383 C53.16302856 207.24702759 53.10022705 206.52213135 53.03552246 205.77526855 C52.76656366 202.66928749 52.50716529 199.56252402 52.24682617 196.45581055 C52.05560113 194.19005477 51.85958687 191.92474838 51.66333008 189.65942383 C51.60600708 188.95418579 51.54868408 188.24894775 51.48962402 187.52233887 C51.20037033 183.79627917 51.20037033 183.79627917 49.94458008 180.31567383 C49.54368164 180.9937207 49.1427832 181.67176758 48.72973633 182.37036133 C44.44026077 189.39304014 39.69950865 195.43958887 33.94458008 201.31567383 C33.35418945 201.9421582 32.76379883 202.56864258 32.15551758 203.21411133 C18.28773905 216.71534065 -3.03058758 221.73477945 -21.74291992 221.62817383 C-22.79020264 221.62253418 -23.83748535 221.61689453 -24.91650391 221.61108398 C-46.67378284 221.27345086 -64.73340154 215.02834414 -80.80541992 200.06567383 C-93.27252516 187.04100574 -97.55704529 170.233808 -97.25854492 152.66333008 C-96.63523495 135.09283003 -87.21554161 121.19858909 -75.05541992 109.31567383 C-74.4959668 108.72399414 -73.93651367 108.13231445 -73.36010742 107.52270508 C-51.48800165 86.1659107 -12.43492518 85.65747788 15.93741798 85.98766708 C17.29399557 86.00520314 18.65056998 86.02298702 20.00714111 86.04101562 C23.51482943 86.08295301 27.02264753 86.100414 30.53051758 86.12036133 C37.33550311 86.16245158 44.14000483 86.23012073 50.94458008 86.31567383 C50.80738682 83.32580697 50.6646357 80.33637162 50.51879883 77.34692383 C50.46218079 76.09443848 50.46218079 76.09443848 50.40441895 74.81665039 C49.75608787 61.78677706 48.45388256 47.99760395 38.90551758 38.22973633 C24.33358804 26.02638898 3.14100262 24.83906461 -15.05541992 26.31567383 C-28.55244613 27.97480428 -41.92372016 32.80987514 -51.34057617 43.00317383 C-55.6680369 48.83883841 -58.42280596 55.58651571 -61.05541992 62.31567383 C-67.78746724 62.57213277 -73.95678062 61.59729931 -80.55541992 60.31567383 C-82.07522461 60.02950195 -82.07522461 60.02950195 -83.62573242 59.73754883 C-86.10359431 59.27002772 -88.58000261 58.79594055 -91.05541992 58.31567383 C-89.85163292 43.80993994 -83.41502914 31.99321729 -72.74291992 22.06567383 C-52.44923983 5.10223868 -25.86323627 -0.07568087 0 0 Z " fill="#020202" transform="translate(236.055419921875,136.684326171875)"/>
<path d="M0 0 C2.34960557 0.01004867 4.69921528 0.01917118 7.04882812 0.02734375 C12.76181049 0.04921039 18.47463551 0.08253877 24.1875 0.125 C24.20941155 3.66405263 24.22265335 7.20308761 24.234375 10.7421875 C24.24380127 12.23915161 24.24380127 12.23915161 24.25341797 13.76635742 C24.2699791 20.43221437 24.00784798 26.67576715 22.1875 33.125 C21.93097656 34.06859375 21.67445313 35.0121875 21.41015625 35.984375 C15.78983721 54.60620461 4.73386208 69.29399387 -12.4609375 78.55078125 C-15.2070998 79.8845191 -17.9592806 81.04014081 -20.8125 82.125 C-21.65554687 82.44597656 -22.49859375 82.76695312 -23.3671875 83.09765625 C-36.99917916 87.34530583 -55.84385277 87.5639787 -68.8125 81.125 C-78.41014139 75.6104019 -85.21914409 68.3886108 -88.33984375 57.625 C-90.34489981 47.01974479 -88.78725208 36.27713748 -83.52734375 26.8125 C-82.08085642 24.74954313 -80.54623026 22.95244541 -78.8125 21.125 C-78.19890625 20.45984375 -77.5853125 19.7946875 -76.953125 19.109375 C-66.67628906 8.98707795 -52.65302787 4.7734119 -38.8125 2.125 C-37.99467041 1.94549805 -37.17684082 1.76599609 -36.33422852 1.58105469 C-24.35670413 -0.70537114 -12.13869176 -0.09054263 0 0 Z " fill="#F8E9D5" transform="translate(262.8125,246.875)"/>
<path d="M0 0 C15.51 0 31.02 0 47 0 C47 15.51 47 31.02 47 47 C31.49 47 15.98 47 0 47 C0 31.49 0 15.98 0 0 Z " fill="#050504" transform="translate(366,307)"/>
<path d="M0 0 C0.33 0 0.66 0 1 0 C2.07289435 22.67383386 -2.51299656 43.68556557 -10 65 C-10.26538574 65.77504883 -10.53077148 66.55009766 -10.80419922 67.34863281 C-17.38323876 86.49981187 -26.03280909 103.99165934 -37 121 C-37.43489746 121.6811084 -37.86979492 122.3622168 -38.31787109 123.06396484 C-45.21312251 133.82913362 -52.56824602 144.01698012 -61.8828125 152.85546875 C-63.77460646 154.77169548 -65.5158374 156.73991977 -67.26953125 158.78125 C-81.30063623 174.92670763 -98.00681344 187.58537194 -116.39453125 198.2890625 C-119.81572222 200.28094072 -123.10940445 202.38483301 -126.375 204.625 C-153.11613346 221.80974094 -191.44157356 234.65443816 -223.1875 234.125 C-224.23486328 234.11597656 -225.28222656 234.10695313 -226.36132812 234.09765625 C-228.90780514 234.07440075 -231.45377031 234.04172569 -234 234 C-234 233.67 -234 233.34 -234 233 C-233.29617188 232.92483154 -232.59234375 232.84966309 -231.8671875 232.7722168 C-165.91815233 225.65320786 -102.46655221 198.66340696 -59.3125 146.5 C-57.86806131 144.6721285 -56.430657 142.83867831 -55 141 C-54.22398437 140.0409375 -53.44796875 139.081875 -52.6484375 138.09375 C-21.3298246 98.72177949 -3.86323264 49.92974025 0 0 Z " fill="#FEFDFC" transform="translate(499,266)"/>
<path d="M0 0 C3.53441141 1.3569757 6.8745367 2.90981328 10.234375 4.65234375 C43.24108846 21.4042101 76.26328222 29.84594747 113 33 C113 33.33 113 33.66 113 34 C89.78907958 35.06427048 68.82639362 30.6255876 47 23 C45.81929932 22.59394531 45.81929932 22.59394531 44.61474609 22.1796875 C29.16688442 16.8336719 13.21865494 10.84975368 0 1 C0 0.67 0 0.34 0 0 Z " fill="#FEFDFB" transform="translate(124,466)"/>
<path d="M0 0 C20.11540895 18.59938745 31.7645024 65.60357215 33.11352539 92.24169922 C33.10828857 92.92248535 33.10305176 93.60327148 33.09765625 94.3046875 C33.09443359 95.05234375 33.09121094 95.8 33.08789062 96.5703125 C33.07532227 97.71113281 33.07532227 97.71113281 33.0625 98.875 C33.05798828 99.65875 33.05347656 100.4425 33.04882812 101.25 C33.03714093 103.16670014 33.01920908 105.08336048 33 107 C32.67 107 32.34 107 32 107 C31.93530518 106.35788574 31.87061035 105.71577148 31.80395508 105.05419922 C28.1455211 69.68829065 19.07939236 34.66649794 0.90698242 3.75756836 C0 2 0 2 0 0 Z " fill="#FEFDFC" transform="translate(467,125)"/>
<path d="M0 0 C0.99 0.495 0.99 0.495 2 1 C0.89205078 1.81791016 0.89205078 1.81791016 -0.23828125 2.65234375 C-22.28745738 19.04213795 -44.05437213 37.43768168 -60 60 C-60.78822763 61.08098853 -61.57862059 62.16040125 -62.37109375 63.23828125 C-64.26103626 65.81607112 -66.13674676 68.40289562 -68 71 C-68.33 70.34 -68.66 69.68 -69 69 C-67.69394635 67.05790131 -66.38031254 65.12160298 -65.0625 63.1875 C-64.33160156 62.10855469 -63.60070313 61.02960938 -62.84765625 59.91796875 C-55.67040893 49.8440089 -47.3836153 41.03746587 -38.64501953 32.3293457 C-36.75791607 30.44540282 -34.88456599 28.54849359 -33.01171875 26.65039062 C-22.87704767 16.46313685 -12.15431865 7.72600101 0 0 Z " fill="#FEFBF8" transform="translate(111,42)"/>
<path d="M0 0 C4.98534813 4.15764027 9.55045533 8.5275887 14.0625 13.1875 C20.9114748 20.14343655 28.14637794 26.21995683 36 32 C36.55333008 32.40927734 37.10666016 32.81855469 37.67675781 33.24023438 C40.76585467 35.51988874 43.87293113 37.77276115 47 40 C46.01 40.495 46.01 40.495 45 41 C31.37801917 32.51744783 19.9968395 22.15787289 8.625 10.875 C7.77349365 10.03283936 6.9219873 9.19067871 6.04467773 8.32299805 C5.25907471 7.53320557 4.47347168 6.74341309 3.6640625 5.9296875 C2.95717285 5.22054199 2.2502832 4.51139648 1.52197266 3.78076172 C0 2 0 2 0 0 Z " fill="#FEFCFA" transform="translate(64,417)"/>
<path d="M0 0 C12.32008751 10.17746359 24.66828533 22.57307759 32 37 C31.67 37.66 31.34 38.32 31 39 C30.57291748 38.42668945 30.14583496 37.85337891 29.70581055 37.26269531 C16.64162124 19.73504909 16.64162124 19.73504909 1.703125 3.81640625 C0 2 0 2 0 0 Z " fill="#FEFDFB" transform="translate(427,73)"/>
<path d="M0 0 C3.50614012 3.37081541 6.50157387 6.82886254 9.375 10.75 C13.1759168 15.89428941 17.04958025 20.96988353 21 26 C18 26 18 26 16.65307617 24.76586914 C16.20424072 24.19473389 15.75540527 23.62359863 15.29296875 23.03515625 C14.79120117 22.40375732 14.28943359 21.7723584 13.77246094 21.12182617 C13.24942383 20.44224854 12.72638672 19.7626709 12.1875 19.0625 C11.65286133 18.37969971 11.11822266 17.69689941 10.56738281 16.9934082 C0 3.38492452 0 3.38492452 0 0 Z " fill="#FEFDFB" transform="translate(42,389)"/>
<path d="M0 0 C5.04428061 1.60276363 8.79698954 4.63311082 12.9375 7.8125 C13.62779297 8.33392578 14.31808594 8.85535156 15.02929688 9.39257812 C17.03196631 10.91308828 19.01944958 12.45081659 21 14 C21.60730957 14.47228027 22.21461914 14.94456055 22.84033203 15.43115234 C24.26705798 16.57228184 25.63982297 17.78031073 27 19 C27 19.66 27 20.32 27 21 C23.25785723 19.38990547 20.51311207 17.02059973 17.4375 14.375 C12.45979519 10.1330961 7.33977301 6.25546213 1.984375 2.49609375 C1.32953125 2.00238281 0.6746875 1.50867187 0 1 C0 0.67 0 0.34 0 0 Z " fill="#FEFDFB" transform="translate(389,42)"/>
</svg>
